<svg xmlns="http://www.w3.org/2000/svg" viewBox="0 0 64 64" width="64" height="64">
  <defs>
    <linearGradient id="amber" x1="0" y1="0" x2="1" y2="1">
      <stop offset="0" stop-color="#f0b86a"/>
      <stop offset="1" stop-color="#d18a3f"/>
    </linearGradient>
  </defs>
  <!-- ink-charcoal rounded tile -->
  <rect x="2" y="2" width="60" height="60" rx="15" fill="#1c1a17"/>
  <rect x="2.5" y="2.5" width="59" height="59" rx="14.5" fill="none" stroke="#ffffff" stroke-opacity="0.08"/>
  <!-- signature stroke -->
  <path d="M12 41 C20 22, 26 22, 28 34 C29 40, 26 44, 24 41 C21 37, 30 24, 39 24 C46 24, 44 33, 41 38"
        fill="none" stroke="url(#amber)" stroke-width="4.2" stroke-linecap="round" stroke-linejoin="round"/>
  <!-- pen nib -->
  <path d="M40 39 l11 -11 a2 2 0 0 1 3 0 l1 1 a2 2 0 0 1 0 3 l-11 11 l-5 1 z"
        fill="url(#amber)"/>
  <path d="M40 39 l4 4" stroke="#1c1a17" stroke-width="1.6" stroke-linecap="round"/>
  <!-- baseline -->
  <line x1="12" y1="50" x2="52" y2="50" stroke="#ffffff" stroke-opacity="0.18" stroke-width="2" stroke-linecap="round"/>
</svg>
